<?xml version="1.0" standalone="no"?>
<!DOCTYPE svg PUBLIC "-//W3C//DTD SVG 20010904//EN"
 "http://www.w3.org/TR/2001/REC-SVG-20010904/DTD/svg10.dtd">
<svg version="1.0" xmlns="http://www.w3.org/2000/svg"
 width="97.000000pt" height="70.000000pt" viewBox="0 0 97.000000 88.000000"
 preserveAspectRatio="xMidYMid meet">

<g transform="translate(0.000000,88.000000) scale(0.100000,-0.100000)"
fill="#000000" stroke="none">
<path d="M479 791 c-46 -46 -50 -81 -15 -116 l25 -25 -69 -40 c-81 -47 -110
-80 -110 -126 0 -32 -2 -34 -34 -34 -40 0 -57 -27 -30 -47 21 -15 231 -18 254
-3 13 8 13 13 2 30 -14 23 -8 40 14 40 9 0 14 -10 14 -28 0 -35 16 -52 51 -52
60 0 77 26 37 55 -19 13 -21 18 -10 33 42 57 48 116 16 143 -8 6 -14 22 -14
35 0 22 4 24 44 24 36 0 48 5 65 26 29 37 27 64 -3 64 -13 0 -40 14 -61 30
-31 24 -47 30 -88 30 -44 0 -53 -4 -88 -39z m47 -97 c-7 -19 -52 -18 -60 2
-12 30 -6 48 27 82 l32 33 3 -52 c2 -28 1 -58 -2 -65z m105 100 c7 -8 30 -24
52 -35 38 -20 39 -21 20 -41 -15 -17 -27 -19 -70 -16 l-51 4 5 -35 c3 -20 12
-43 19 -52 28 -32 28 -73 0 -106 -33 -39 -34 -78 -3 -88 l22 -8 -23 -4 c-41
-8 -52 3 -52 54 0 36 -3 44 -12 35 -20 -20 -35 -14 -48 18 -7 17 -16 30 -21
30 -11 0 -11 -1 2 -38 7 -21 7 -37 1 -49 -8 -13 -6 -23 5 -35 15 -17 13 -18
-33 -18 -60 0 -96 17 -108 51 -17 50 -1 74 82 124 108 65 132 94 132 160 0 28
3 55 7 58 12 13 61 7 74 -9z m-296 -374 c4 -6 -10 -10 -34 -10 -22 0 -43 5
-46 10 -4 6 10 10 34 10 22 0 43 -4 46 -10z"/>
<path d="M612 771 c4 -13 18 -16 19 -4 0 4 -5 9 -11 12 -7 2 -11 -2 -8 -8z"/>
</g>
</svg>
